# xmcd
#
# Track frame offsets: 
#        150
#        24868
#        45426
#        77851
#        100181
#        122198
#        136841
#        154832
#
# Disc length: 2447 seconds
#
# Revision: 0
# Processed by: cddbd v1.5.2PL0 Copyright (c) Steve Scherf et al.
# Submitted via: ExactAudioCopyFreeDBPlugin 1.0
#
DISCID=59098d08
DTITLE=74 Miles Away - 74 Miles Away
DYEAR=2011
DGENRE=Jazz
TTITLE0=Pierre Anckaert Trio - Romeo And July
TTITLE1=Pierre Anckaert Trio - One Take Groover
TTITLE2=Pierre Anckaert Trio - August City Blues
TTITLE3=Pierre Anckaert Trio - Chromeface
TTITLE4=Monkey Robot - Finding A Place
TTITLE5=Monkey Robot - So Amazing
TTITLE6=Monkey Robot - Same Dream Again ft. AHU and Miles Bonny
TTITLE7=Monkey Robot - Neverending Rhodes
EXTD=
EXTT0=
EXTT1=
EXTT2=
EXTT3=
EXTT4=
EXTT5=
EXTT6=
EXTT7=
PLAYORDER=
